<svg version="1.1" viewBox="0.0 0.0 960.0 720.0" fill="none" stroke="none" stroke-linecap="square" stroke-miterlimit="10" xmlns:xlink="http://www.w3.org/1999/xlink" xmlns="http://www.w3.org/2000/svg"><clipPath id="p.0"><path d="m0 0l960.0 0l0 720.0l-960.0 0l0 -720.0z" clip-rule="nonzero"/></clipPath><g clip-path="url(#p.0)"><path fill="#000000" fill-opacity="0.0" d="m0 0l960.0 0l0 720.0l-960.0 0z" fill-rule="evenodd"/><path fill="#9fc5e8" d="m82.76378 66.51706l106.11023 0l0 361.00787l-106.11023 0z" fill-rule="evenodd"/><path stroke="#000000" stroke-width="1.0" stroke-linejoin="round" stroke-linecap="butt" d="m82.76378 66.51706l106.11023 0l0 361.00787l-106.11023 0z" fill-rule="evenodd"/><path fill="#000000" d="m92.93565 90.87706l0 -11.453125l1.515625 0l0 5.671875l5.6875 -5.671875l2.0625 0l-4.8125 4.640625l5.015625 6.8125l-2.0 0l-4.078125 -5.796875l-1.875 1.828125l0 3.96875l-1.515625 0zm12.328125 -6.21875q-0.875 -0.3125 -1.296875 -0.90625q-0.421875 -0.59375 -0.421875 -1.421875q0 -1.25 0.890625 -2.09375q0.90625 -0.859375 2.40625 -0.859375q1.5 0 2.40625 0.875q0.921875 0.859375 0.921875 2.109375q0 0.796875 -0.421875 1.390625q-0.421875 0.59375 -1.265625 0.90625q1.046875 0.34375 1.59375 1.109375q0.5625 0.765625 0.5625 1.828125q0 1.46875 -1.046875 2.484375q-1.03125 1.0 -2.734375 1.0q-1.6875 0 -2.734375 -1.0q-1.03125 -1.015625 -1.03125 -2.515625q0 -1.125 0.5625 -1.875q0.5625 -0.75 1.609375 -1.03125zm-0.28125 -2.375q0 0.8125 0.515625 1.328125q0.53125 0.515625 1.375 0.515625q0.8125 0 1.328125 -0.515625q0.515625 -0.515625 0.515625 -1.25q0 -0.78125 -0.53125 -1.296875q-0.53125 -0.53125 -1.328125 -0.53125q-0.8125 0 -1.34375 0.515625q-0.53125 0.515625 -0.53125 1.234375zm-0.453125 5.28125q0 0.609375 0.28125 1.171875q0.296875 0.5625 0.859375 0.875q0.5625 0.296875 1.203125 0.296875q1.015625 0 1.671875 -0.640625q0.65625 -0.65625 0.65625 -1.65625q0 -1.015625 -0.6875 -1.671875q-0.671875 -0.671875 -1.6875 -0.671875q-0.984375 0 -1.640625 0.65625q-0.65625 0.65625 -0.65625 1.640625zm7.3046875 0.828125l1.390625 -0.21875q0.109375 0.84375 0.640625 1.296875q0.546875 0.4375 1.5 0.4375q0.96875 0 1.4375 -0.390625q0.46875 -0.40625 0.46875 -0.9375q0 -0.46875 -0.40625 -0.75q-0.296875 -0.1875 -1.4375 -0.46875q-1.546875 -0.390625 -2.15625 -0.671875q-0.59375 -0.296875 -0.90625 -0.796875q-0.296875 -0.5 -0.296875 -1.109375q0 -0.5625 0.25 -1.03125q0.25 -0.46875 0.6875 -0.78125q0.328125 -0.25 0.890625 -0.40625q0.578125 -0.171875 1.21875 -0.171875q0.984375 0 1.71875 0.28125q0.734375 0.28125 1.078125 0.765625q0.359375 0.46875 0.5 1.28125l-1.375 0.1875q-0.09375 -0.640625 -0.546875 -1.0q-0.453125 -0.359375 -1.265625 -0.359375q-0.96875 0 -1.390625 0.328125q-0.40625 0.3125 -0.40625 0.734375q0 0.28125 0.171875 0.5q0.171875 0.21875 0.53125 0.375q0.21875 0.078125 1.25 0.359375q1.484375 0.390625 2.078125 0.65625q0.59375 0.25 0.921875 0.734375q0.34375 0.484375 0.34375 1.203125q0 0.703125 -0.421875 1.328125q-0.40625 0.609375 -1.1875 0.953125q-0.765625 0.34375 -1.734375 0.34375q-1.625 0 -2.46875 -0.671875q-0.84375 -0.671875 -1.078125 -2.0z" fill-rule="nonzero"/><path fill="#000000" d="m94.99815 109.87706l-3.03125 -11.453125l1.546875 0l1.75 7.5q0.28125 1.1875 0.484375 2.34375q0.4375 -1.828125 0.515625 -2.109375l2.171875 -7.734375l1.828125 0l1.640625 5.796875q0.625 2.15625 0.890625 4.046875q0.21875 -1.078125 0.578125 -2.484375l1.796875 -7.359375l1.515625 0l-3.140625 11.453125l-1.453125 0l-2.421875 -8.734375q-0.296875 -1.09375 -0.359375 -1.34375q-0.171875 0.796875 -0.328125 1.34375l-2.4375 8.734375l-1.546875 0zm12.109375 -4.15625q0 -2.296875 1.28125 -3.40625q1.078125 -0.921875 2.609375 -0.921875q1.71875 0 2.796875 1.125q1.09375 1.109375 1.09375 3.09375q0 1.59375 -0.484375 2.515625q-0.484375 0.921875 -1.40625 1.4375q-0.90625 0.5 -2.0 0.5q-1.734375 0 -2.8125 -1.109375q-1.078125 -1.125 -1.078125 -3.234375zm1.453125 0q0 1.59375 0.6875 2.390625q0.703125 0.796875 1.75 0.796875q1.046875 0 1.734375 -0.796875q0.703125 -0.796875 0.703125 -2.4375q0 -1.53125 -0.703125 -2.328125q-0.6875 -0.796875 -1.734375 -0.796875q-1.046875 0 -1.75 0.796875q-0.6875 0.78125 -0.6875 2.375zm7.9609375 4.15625l0 -8.296875l1.265625 0l0 1.25q0.484375 -0.875 0.890625 -1.15625q0.40625 -0.28125 0.90625 -0.28125q0.703125 0 1.4375 0.453125l-0.484375 1.296875q-0.515625 -0.296875 -1.03125 -0.296875q-0.453125 0 -0.828125 0.28125q-0.359375 0.265625 -0.515625 0.765625q-0.234375 0.75 -0.234375 1.640625l0 4.34375l-1.40625 0zm5.34375 0l0 -11.453125l1.40625 0l0 6.53125l3.328125 -3.375l1.828125 0l-3.171875 3.078125l3.484375 5.21875l-1.734375 0l-2.734375 -4.25l-1.0 0.953125l0 3.296875l-1.40625 0zm13.671875 -2.671875l1.453125 0.171875q-0.34375 1.28125 -1.28125 1.984375q-0.921875 0.703125 -2.359375 0.703125q-1.828125 0 -2.890625 -1.125q-1.0625 -1.125 -1.0625 -3.140625q0 -2.09375 1.078125 -3.25q1.078125 -1.15625 2.796875 -1.15625q1.65625 0 2.703125 1.140625q1.0625 1.125 1.0625 3.171875q0 0.125 0 0.375l-6.1875 0q0.078125 1.375 0.765625 2.109375q0.703125 0.71875 1.734375 0.71875q0.78125 0 1.328125 -0.40625q0.546875 -0.40625 0.859375 -1.296875zm-4.609375 -2.28125l4.625 0q-0.09375 -1.046875 -0.53125 -1.5625q-0.671875 -0.8125 -1.734375 -0.8125q-0.96875 0 -1.640625 0.65625q-0.65625 0.640625 -0.71875 1.71875zm7.8203125 4.953125l0 -8.296875l1.265625 0l0 1.25q0.484375 -0.875 0.890625 -1.15625q0.40625 -0.28125 0.90625 -0.28125q0.703125 0 1.4375 0.453125l-0.484375 1.296875q-0.515625 -0.296875 -1.03125 -0.296875q-0.453125 0 -0.828125 0.28125q-0.359375 0.265625 -0.515625 0.765625q-0.234375 0.75 -0.234375 1.640625l0 4.34375l-1.40625 0z" fill-rule="nonzero"/><path fill="#9fc5e8" d="m206.91602 66.51706l106.11023 0l0 361.00787l-106.11023 0z" fill-rule="evenodd"/><path stroke="#000000" stroke-width="1.0" stroke-linejoin="round" stroke-linecap="butt" d="m206.91602 66.51706l106.11023 0l0 361.00787l-106.11023 0z" fill-rule="evenodd"/><path fill="#000000" d="m217.08789 90.87706l0 -11.453125l1.515625 0l0 5.671875l5.6875 -5.671875l2.0625 0l-4.8125 4.640625l5.015625 6.8125l-2.0 0l-4.078125 -5.796875l-1.875 1.828125l0 3.96875l-1.515625 0zm12.328125 -6.21875q-0.875 -0.3125 -1.296875 -0.90625q-0.421875 -0.59375 -0.421875 -1.421875q0 -1.25 0.890625 -2.09375q0.90625 -0.859375 2.40625 -0.859375q1.5 0 2.40625 0.875q0.921875 0.859375 0.921875 2.109375q0 0.796875 -0.421875 1.390625q-0.421875 0.59375 -1.265625 0.90625q1.046875 0.34375 1.59375 1.109375q0.5625 0.765625 0.5625 1.828125q0 1.46875 -1.046875 2.484375q-1.03125 1.0 -2.734375 1.0q-1.6875 0 -2.734375 -1.0q-1.03125 -1.015625 -1.03125 -2.515625q0 -1.125 0.5625 -1.875q0.5625 -0.75 1.609375 -1.03125zm-0.28125 -2.375q0 0.8125 0.515625 1.328125q0.53125 0.515625 1.375 0.515625q0.8125 0 1.328125 -0.515625q0.515625 -0.515625 0.515625 -1.25q0 -0.78125 -0.53125 -1.296875q-0.53125 -0.53125 -1.328125 -0.53125q-0.8125 0 -1.34375 0.515625q-0.53125 0.515625 -0.53125 1.234375zm-0.453125 5.28125q0 0.609375 0.28125 1.171875q0.296875 0.5625 0.859375 0.875q0.5625 0.296875 1.203125 0.296875q1.015625 0 1.671875 -0.640625q0.65625 -0.65625 0.65625 -1.65625q0 -1.015625 -0.6875 -1.671875q-0.671875 -0.671875 -1.6875 -0.671875q-0.984375 0 -1.640625 0.65625q-0.65625 0.65625 -0.65625 1.640625zm7.3046875 0.828125l1.390625 -0.21875q0.109375 0.84375 0.640625 1.296875q0.546875 0.4375 1.5 0.4375q0.96875 0 1.4375 -0.390625q0.46875 -0.40625 0.46875 -0.9375q0 -0.46875 -0.40625 -0.75q-0.296875 -0.1875 -1.4375 -0.46875q-1.546875 -0.390625 -2.15625 -0.671875q-0.59375 -0.296875 -0.90625 -0.796875q-0.296875 -0.5 -0.296875 -1.109375q0 -0.5625 0.25 -1.03125q0.25 -0.46875 0.6875 -0.78125q0.328125 -0.25 0.890625 -0.40625q0.578125 -0.171875 1.21875 -0.171875q0.984375 0 1.71875 0.28125q0.734375 0.28125 1.078125 0.765625q0.359375 0.46875 0.5 1.28125l-1.375 0.1875q-0.09375 -0.640625 -0.546875 -1.0q-0.453125 -0.359375 -1.265625 -0.359375q-0.96875 0 -1.390625 0.328125q-0.40625 0.3125 -0.40625 0.734375q0 0.28125 0.171875 0.5q0.171875 0.21875 0.53125 0.375q0.21875 0.078125 1.25 0.359375q1.484375 0.390625 2.078125 0.65625q0.59375 0.25 0.921875 0.734375q0.34375 0.484375 0.34375 1.203125q0 0.703125 -0.421875 1.328125q-0.40625 0.609375 -1.1875 0.953125q-0.765625 0.34375 -1.734375 0.34375q-1.625 0 -2.46875 -0.671875q-0.84375 -0.671875 -1.078125 -2.0z" fill-rule="nonzero"/><path fill="#000000" d="m219.15039 109.87706l-3.03125 -11.453125l1.546875 0l1.75 7.5q0.28125 1.1875 0.484375 2.34375q0.4375 -1.828125 0.515625 -2.109375l2.171875 -7.734375l1.828125 0l1.640625 5.796875q0.625 2.15625 0.890625 4.046875q0.21875 -1.078125 0.578125 -2.484375l1.796875 -7.359375l1.515625 0l-3.140625 11.453125l-1.453125 0l-2.421875 -8.734375q-0.296875 -1.09375 -0.359375 -1.34375q-0.171875 0.796875 -0.328125 1.34375l-2.4375 8.734375l-1.546875 0zm12.109375 -4.15625q0 -2.296875 1.28125 -3.40625q1.078125 -0.921875 2.609375 -0.921875q1.71875 0 2.796875 1.125q1.09375 1.109375 1.09375 3.09375q0 1.59375 -0.484375 2.515625q-0.484375 0.921875 -1.40625 1.4375q-0.90625 0.5 -2.0 0.5q-1.734375 0 -2.8125 -1.109375q-1.078125 -1.125 -1.078125 -3.234375zm1.453125 0q0 1.59375 0.6875 2.390625q0.703125 0.796875 1.75 0.796875q1.046875 0 1.734375 -0.796875q0.703125 -0.796875 0.703125 -2.4375q0 -1.53125 -0.703125 -2.328125q-0.6875 -0.796875 -1.734375 -0.796875q-1.046875 0 -1.75 0.796875q-0.6875 0.78125 -0.6875 2.375zm7.9609375 4.15625l0 -8.296875l1.265625 0l0 1.25q0.484375 -0.875 0.890625 -1.15625q0.40625 -0.28125 0.90625 -0.28125q0.703125 0 1.4375 0.453125l-0.484375 1.296875q-0.515625 -0.296875 -1.03125 -0.296875q-0.453125 0 -0.828125 0.28125q-0.359375 0.265625 -0.515625 0.765625q-0.234375 0.75 -0.234375 1.640625l0 4.34375l-1.40625 0zm5.34375 0l0 -11.453125l1.40625 0l0 6.53125l3.328125 -3.375l1.828125 0l-3.171875 3.078125l3.484375 5.21875l-1.734375 0l-2.734375 -4.25l-1.0 0.953125l0 3.296875l-1.40625 0zm13.671875 -2.671875l1.453125 0.171875q-0.34375 1.28125 -1.28125 1.984375q-0.921875 0.703125 -2.359375 0.703125q-1.828125 0 -2.890625 -1.125q-1.0625 -1.125 -1.0625 -3.140625q0 -2.09375 1.078125 -3.25q1.078125 -1.15625 2.796875 -1.15625q1.65625 0 2.703125 1.140625q1.0625 1.125 1.0625 3.171875q0 0.125 0 0.375l-6.1875 0q0.078125 1.375 0.765625 2.109375q0.703125 0.71875 1.734375 0.71875q0.78125 0 1.328125 -0.40625q0.546875 -0.40625 0.859375 -1.296875zm-4.609375 -2.28125l4.625 0q-0.09375 -1.046875 -0.53125 -1.5625q-0.671875 -0.8125 -1.734375 -0.8125q-0.96875 0 -1.640625 0.65625q-0.65625 0.640625 -0.71875 1.71875zm7.8203125 4.953125l0 -8.296875l1.265625 0l0 1.25q0.484375 -0.875 0.890625 -1.15625q0.40625 -0.28125 0.90625 -0.28125q0.703125 0 1.4375 0.453125l-0.484375 1.296875q-0.515625 -0.296875 -1.03125 -0.296875q-0.453125 0 -0.828125 0.28125q-0.359375 0.265625 -0.515625 0.765625q-0.234375 0.75 -0.234375 1.640625l0 4.34375l-1.40625 0z" fill-rule="nonzero"/><path fill="#9fc5e8" d="m331.06824 66.51706l106.11023 0l0 361.00787l-106.11023 0z" fill-rule="evenodd"/><path stroke="#000000" stroke-width="1.0" stroke-linejoin="round" stroke-linecap="butt" d="m331.06824 66.51706l106.11023 0l0 361.00787l-106.11023 0z" fill-rule="evenodd"/><path fill="#000000" d="m341.2401 90.87706l0 -11.453125l1.515625 0l0 5.671875l5.6875 -5.671875l2.0625 0l-4.8125 4.640625l5.015625 6.8125l-2.0 0l-4.078125 -5.796875l-1.875 1.828125l0 3.96875l-1.515625 0zm12.328125 -6.21875q-0.875 -0.3125 -1.296875 -0.90625q-0.421875 -0.59375 -0.421875 -1.421875q0 -1.25 0.890625 -2.09375q0.90625 -0.859375 2.40625 -0.859375q1.5 0 2.40625 0.875q0.921875 0.859375 0.921875 2.109375q0 0.796875 -0.421875 1.390625q-0.421875 0.59375 -1.265625 0.90625q1.046875 0.34375 1.59375 1.109375q0.5625 0.765625 0.5625 1.828125q0 1.46875 -1.046875 2.484375q-1.03125 1.0 -2.734375 1.0q-1.6875 0 -2.734375 -1.0q-1.03125 -1.015625 -1.03125 -2.515625q0 -1.125 0.5625 -1.875q0.5625 -0.75 1.609375 -1.03125zm-0.28125 -2.375q0 0.8125 0.515625 1.328125q0.53125 0.515625 1.375 0.515625q0.8125 0 1.328125 -0.515625q0.515625 -0.515625 0.515625 -1.25q0 -0.78125 -0.53125 -1.296875q-0.53125 -0.53125 -1.328125 -0.53125q-0.8125 0 -1.34375 0.515625q-0.53125 0.515625 -0.53125 1.234375zm-0.453125 5.28125q0 0.609375 0.28125 1.171875q0.296875 0.5625 0.859375 0.875q0.5625 0.296875 1.203125 0.296875q1.015625 0 1.671875 -0.640625q0.65625 -0.65625 0.65625 -1.65625q0 -1.015625 -0.6875 -1.671875q-0.671875 -0.671875 -1.6875 -0.671875q-0.984375 0 -1.640625 0.65625q-0.65625 0.65625 -0.65625 1.640625zm7.3046875 0.828125l1.390625 -0.21875q0.109375 0.84375 0.640625 1.296875q0.546875 0.4375 1.5 0.4375q0.96875 0 1.4375 -0.390625q0.46875 -0.40625 0.46875 -0.9375q0 -0.46875 -0.40625 -0.75q-0.296875 -0.1875 -1.4375 -0.46875q-1.546875 -0.390625 -2.15625 -0.671875q-0.59375 -0.296875 -0.90625 -0.796875q-0.296875 -0.5 -0.296875 -1.109375q0 -0.5625 0.25 -1.03125q0.25 -0.46875 0.6875 -0.78125q0.328125 -0.25 0.890625 -0.40625q0.578125 -0.171875 1.21875 -0.171875q0.984375 0 1.71875 0.28125q0.734375 0.28125 1.078125 0.765625q0.359375 0.46875 0.5 1.28125l-1.375 0.1875q-0.09375 -0.640625 -0.546875 -1.0q-0.453125 -0.359375 -1.265625 -0.359375q-0.96875 0 -1.390625 0.328125q-0.40625 0.3125 -0.40625 0.734375q0 0.28125 0.171875 0.5q0.171875 0.21875 0.53125 0.375q0.21875 0.078125 1.25 0.359375q1.484375 0.390625 2.078125 0.65625q0.59375 0.25 0.921875 0.734375q0.34375 0.484375 0.34375 1.203125q0 0.703125 -0.421875 1.328125q-0.40625 0.609375 -1.1875 0.953125q-0.765625 0.34375 -1.734375 0.34375q-1.625 0 -2.46875 -0.671875q-0.84375 -0.671875 -1.078125 -2.0z" fill-rule="nonzero"/><path fill="#000000" d="m343.3026 109.87706l-3.03125 -11.453125l1.546875 0l1.75 7.5q0.28125 1.1875 0.484375 2.34375q0.4375 -1.828125 0.515625 -2.109375l2.171875 -7.734375l1.828125 0l1.640625 5.796875q0.625 2.15625 0.890625 4.046875q0.21875 -1.078125 0.578125 -2.484375l1.796875 -7.359375l1.515625 0l-3.140625 11.453125l-1.453125 0l-2.421875 -8.734375q-0.296875 -1.09375 -0.359375 -1.34375q-0.171875 0.796875 -0.328125 1.34375l-2.4375 8.734375l-1.546875 0zm12.109375 -4.15625q0 -2.296875 1.28125 -3.40625q1.078125 -0.921875 2.609375 -0.921875q1.71875 0 2.796875 1.125q1.09375 1.109375 1.09375 3.09375q0 1.59375 -0.484375 2.515625q-0.484375 0.921875 -1.40625 1.4375q-0.90625 0.5 -2.0 0.5q-1.734375 0 -2.8125 -1.109375q-1.078125 -1.125 -1.078125 -3.234375zm1.453125 0q0 1.59375 0.6875 2.390625q0.703125 0.796875 1.75 0.796875q1.046875 0 1.734375 -0.796875q0.703125 -0.796875 0.703125 -2.4375q0 -1.53125 -0.703125 -2.328125q-0.6875 -0.796875 -1.734375 -0.796875q-1.046875 0 -1.75 0.796875q-0.6875 0.78125 -0.6875 2.375zm7.9609375 4.15625l0 -8.296875l1.265625 0l0 1.25q0.484375 -0.875 0.890625 -1.15625q0.40625 -0.28125 0.90625 -0.28125q0.703125 0 1.4375 0.453125l-0.484375 1.296875q-0.515625 -0.296875 -1.03125 -0.296875q-0.453125 0 -0.828125 0.28125q-0.359375 0.265625 -0.515625 0.765625q-0.234375 0.75 -0.234375 1.640625l0 4.34375l-1.40625 0zm5.34375 0l0 -11.453125l1.40625 0l0 6.53125l3.328125 -3.375l1.828125 0l-3.171875 3.078125l3.484375 5.21875l-1.734375 0l-2.734375 -4.25l-1.0 0.953125l0 3.296875l-1.40625 0zm13.671875 -2.671875l1.453125 0.171875q-0.34375 1.28125 -1.28125 1.984375q-0.921875 0.703125 -2.359375 0.703125q-1.828125 0 -2.890625 -1.125q-1.0625 -1.125 -1.0625 -3.140625q0 -2.09375 1.078125 -3.25q1.078125 -1.15625 2.796875 -1.15625q1.65625 0 2.703125 1.140625q1.0625 1.125 1.0625 3.171875q0 0.125 0 0.375l-6.1875 0q0.078125 1.375 0.765625 2.109375q0.703125 0.71875 1.734375 0.71875q0.78125 0 1.328125 -0.40625q0.546875 -0.40625 0.859375 -1.296875zm-4.609375 -2.28125l4.625 0q-0.09375 -1.046875 -0.53125 -1.5625q-0.671875 -0.8125 -1.734375 -0.8125q-0.96875 0 -1.640625 0.65625q-0.65625 0.640625 -0.71875 1.71875zm7.8203125 4.953125l0 -8.296875l1.265625 0l0 1.25q0.484375 -0.875 0.890625 -1.15625q0.40625 -0.28125 0.90625 -0.28125q0.703125 0 1.4375 0.453125l-0.484375 1.296875q-0.515625 -0.296875 -1.03125 -0.296875q-0.453125 0 -0.828125 0.28125q-0.359375 0.265625 -0.515625 0.765625q-0.234375 0.75 -0.234375 1.640625l0 4.34375l-1.40625 0z" fill-rule="nonzero"/><path fill="#9fc5e8" d="m455.22046 66.51706l106.11023 0l0 361.00787l-106.11023 0z" fill-rule="evenodd"/><path stroke="#000000" stroke-width="1.0" stroke-linejoin="round" stroke-linecap="butt" d="m455.22046 66.51706l106.11023 0l0 361.00787l-106.11023 0z" fill-rule="evenodd"/><path fill="#000000" d="m465.39233 90.87706l0 -11.453125l1.515625 0l0 5.671875l5.6875 -5.671875l2.0625 0l-4.8125 4.640625l5.015625 6.8125l-2.0 0l-4.078125 -5.796875l-1.875 1.828125l0 3.96875l-1.515625 0zm12.328125 -6.21875q-0.875 -0.3125 -1.296875 -0.90625q-0.421875 -0.59375 -0.421875 -1.421875q0 -1.25 0.890625 -2.09375q0.90625 -0.859375 2.40625 -0.859375q1.5 0 2.40625 0.875q0.921875 0.859375 0.921875 2.109375q0 0.796875 -0.421875 1.390625q-0.421875 0.59375 -1.265625 0.90625q1.046875 0.34375 1.59375 1.109375q0.5625 0.765625 0.5625 1.828125q0 1.46875 -1.046875 2.484375q-1.03125 1.0 -2.734375 1.0q-1.6875 0 -2.734375 -1.0q-1.03125 -1.015625 -1.03125 -2.515625q0 -1.125 0.5625 -1.875q0.5625 -0.75 1.609375 -1.03125zm-0.28125 -2.375q0 0.8125 0.515625 1.328125q0.53125 0.515625 1.375 0.515625q0.8125 0 1.328125 -0.515625q0.515625 -0.515625 0.515625 -1.25q0 -0.78125 -0.53125 -1.296875q-0.53125 -0.53125 -1.328125 -0.53125q-0.8125 0 -1.34375 0.515625q-0.53125 0.515625 -0.53125 1.234375zm-0.453125 5.28125q0 0.609375 0.28125 1.171875q0.296875 0.5625 0.859375 0.875q0.5625 0.296875 1.203125 0.296875q1.015625 0 1.671875 -0.640625q0.65625 -0.65625 0.65625 -1.65625q0 -1.015625 -0.6875 -1.671875q-0.671875 -0.671875 -1.6875 -0.671875q-0.984375 0 -1.640625 0.65625q-0.65625 0.65625 -0.65625 1.640625zm7.3046875 0.828125l1.390625 -0.21875q0.109375 0.84375 0.640625 1.296875q0.546875 0.4375 1.5 0.4375q0.96875 0 1.4375 -0.390625q0.46875 -0.40625 0.46875 -0.9375q0 -0.46875 -0.40625 -0.75q-0.296875 -0.1875 -1.4375 -0.46875q-1.546875 -0.390625 -2.15625 -0.671875q-0.59375 -0.296875 -0.90625 -0.796875q-0.296875 -0.5 -0.296875 -1.109375q0 -0.5625 0.25 -1.03125q0.25 -0.46875 0.6875 -0.78125q0.328125 -0.25 0.890625 -0.40625q0.578125 -0.171875 1.21875 -0.171875q0.984375 0 1.71875 0.28125q0.734375 0.28125 1.078125 0.765625q0.359375 0.46875 0.5 1.28125l-1.375 0.1875q-0.09375 -0.640625 -0.546875 -1.0q-0.453125 -0.359375 -1.265625 -0.359375q-0.96875 0 -1.390625 0.328125q-0.40625 0.3125 -0.40625 0.734375q0 0.28125 0.171875 0.5q0.171875 0.21875 0.53125 0.375q0.21875 0.078125 1.25 0.359375q1.484375 0.390625 2.078125 0.65625q0.59375 0.25 0.921875 0.734375q0.34375 0.484375 0.34375 1.203125q0 0.703125 -0.421875 1.328125q-0.40625 0.609375 -1.1875 0.953125q-0.765625 0.34375 -1.734375 0.34375q-1.625 0 -2.46875 -0.671875q-0.84375 -0.671875 -1.078125 -2.0z" fill-rule="nonzero"/><path fill="#000000" d="m467.45483 109.87706l-3.03125 -11.453125l1.546875 0l1.75 7.5q0.28125 1.1875 0.484375 2.34375q0.4375 -1.828125 0.515625 -2.109375l2.171875 -7.734375l1.828125 0l1.640625 5.796875q0.625 2.15625 0.890625 4.046875q0.21875 -1.078125 0.578125 -2.484375l1.796875 -7.359375l1.515625 0l-3.140625 11.453125l-1.453125 0l-2.421875 -8.734375q-0.296875 -1.09375 -0.359375 -1.34375q-0.171875 0.796875 -0.328125 1.34375l-2.4375 8.734375l-1.546875 0zm12.109375 -4.15625q0 -2.296875 1.28125 -3.40625q1.078125 -0.921875 2.609375 -0.921875q1.71875 0 2.796875 1.125q1.09375 1.109375 1.09375 3.09375q0 1.59375 -0.484375 2.515625q-0.484375 0.921875 -1.40625 1.4375q-0.90625 0.5 -2.0 0.5q-1.734375 0 -2.8125 -1.109375q-1.078125 -1.125 -1.078125 -3.234375zm1.453125 0q0 1.59375 0.6875 2.390625q0.703125 0.796875 1.75 0.796875q1.046875 0 1.734375 -0.796875q0.703125 -0.796875 0.703125 -2.4375q0 -1.53125 -0.703125 -2.328125q-0.6875 -0.796875 -1.734375 -0.796875q-1.046875 0 -1.75 0.796875q-0.6875 0.78125 -0.6875 2.375zm7.9609375 4.15625l0 -8.296875l1.265625 0l0 1.25q0.484375 -0.875 0.890625 -1.15625q0.40625 -0.28125 0.90625 -0.28125q0.703125 0 1.4375 0.453125l-0.484375 1.296875q-0.515625 -0.296875 -1.03125 -0.296875q-0.453125 0 -0.828125 0.28125q-0.359375 0.265625 -0.515625 0.765625q-0.234375 0.75 -0.234375 1.640625l0 4.34375l-1.40625 0zm5.34375 0l0 -11.453125l1.40625 0l0 6.53125l3.328125 -3.375l1.828125 0l-3.171875 3.078125l3.484375 5.21875l-1.734375 0l-2.734375 -4.25l-1.0 0.953125l0 3.296875l-1.40625 0zm13.671875 -2.671875l1.453125 0.171875q-0.34375 1.28125 -1.28125 1.984375q-0.921875 0.703125 -2.359375 0.703125q-1.828125 0 -2.890625 -1.125q-1.0625 -1.125 -1.0625 -3.140625q0 -2.09375 1.078125 -3.25q1.078125 -1.15625 2.796875 -1.15625q1.65625 0 2.703125 1.140625q1.0625 1.125 1.0625 3.171875q0 0.125 0 0.375l-6.1875 0q0.078125 1.375 0.765625 2.109375q0.703125 0.71875 1.734375 0.71875q0.78125 0 1.328125 -0.40625q0.546875 -0.40625 0.859375 -1.296875zm-4.609375 -2.28125l4.625 0q-0.09375 -1.046875 -0.53125 -1.5625q-0.671875 -0.8125 -1.734375 -0.8125q-0.96875 0 -1.640625 0.65625q-0.65625 0.640625 -0.71875 1.71875zm7.8203125 4.953125l0 -8.296875l1.265625 0l0 1.25q0.484375 -0.875 0.890625 -1.15625q0.40625 -0.28125 0.90625 -0.28125q0.703125 0 1.4375 0.453125l-0.484375 1.296875q-0.515625 -0.296875 -1.03125 -0.296875q-0.453125 0 -0.828125 0.28125q-0.359375 0.265625 -0.515625 0.765625q-0.234375 0.75 -0.234375 1.640625l0 4.34375l-1.40625 0z" fill-rule="nonzero"/><path fill="#9fc5e8" d="m583.94226 66.51706l106.11023 0l0 361.00787l-106.11023 0z" fill-rule="evenodd"/><path stroke="#000000" stroke-width="1.0" stroke-linejoin="round" stroke-linecap="butt" d="m583.94226 66.51706l106.11023 0l0 361.00787l-106.11023 0z" fill-rule="evenodd"/><path fill="#000000" d="m594.11414 90.87706l0 -11.453125l1.515625 0l0 5.671875l5.6875 -5.671875l2.0625 0l-4.8125 4.640625l5.015625 6.8125l-2.0 0l-4.078125 -5.796875l-1.875 1.828125l0 3.96875l-1.515625 0zm12.328125 -6.21875q-0.875 -0.3125 -1.296875 -0.90625q-0.421875 -0.59375 -0.421875 -1.421875q0 -1.25 0.890625 -2.09375q0.90625 -0.859375 2.40625 -0.859375q1.5 0 2.40625 0.875q0.921875 0.859375 0.921875 2.109375q0 0.796875 -0.421875 1.390625q-0.421875 0.59375 -1.265625 0.90625q1.046875 0.34375 1.59375 1.109375q0.5625 0.765625 0.5625 1.828125q0 1.46875 -1.046875 2.484375q-1.03125 1.0 -2.734375 1.0q-1.6875 0 -2.734375 -1.0q-1.03125 -1.015625 -1.03125 -2.515625q0 -1.125 0.5625 -1.875q0.5625 -0.75 1.609375 -1.03125zm-0.28125 -2.375q0 0.8125 0.515625 1.328125q0.53125 0.515625 1.375 0.515625q0.8125 0 1.328125 -0.515625q0.515625 -0.515625 0.515625 -1.25q0 -0.78125 -0.53125 -1.296875q-0.53125 -0.53125 -1.328125 -0.53125q-0.8125 0 -1.34375 0.515625q-0.53125 0.515625 -0.53125 1.234375zm-0.453125 5.28125q0 0.609375 0.28125 1.171875q0.296875 0.5625 0.859375 0.875q0.5625 0.296875 1.203125 0.296875q1.015625 0 1.671875 -0.640625q0.65625 -0.65625 0.65625 -1.65625q0 -1.015625 -0.6875 -1.671875q-0.671875 -0.671875 -1.6875 -0.671875q-0.984375 0 -1.640625 0.65625q-0.65625 0.65625 -0.65625 1.640625zm7.3046875 0.828125l1.390625 -0.21875q0.109375 0.84375 0.640625 1.296875q0.546875 0.4375 1.5 0.4375q0.96875 0 1.4375 -0.390625q0.46875 -0.40625 0.46875 -0.9375q0 -0.46875 -0.40625 -0.75q-0.296875 -0.1875 -1.4375 -0.46875q-1.546875 -0.390625 -2.15625 -0.671875q-0.59375 -0.296875 -0.90625 -0.796875q-0.296875 -0.5 -0.296875 -1.109375q0 -0.5625 0.25 -1.03125q0.25 -0.46875 0.6875 -0.78125q0.328125 -0.25 0.890625 -0.40625q0.578125 -0.171875 1.21875 -0.171875q0.984375 0 1.71875 0.28125q0.734375 0.28125 1.078125 0.765625q0.359375 0.46875 0.5 1.28125l-1.375 0.1875q-0.09375 -0.640625 -0.546875 -1.0q-0.453125 -0.359375 -1.265625 -0.359375q-0.96875 0 -1.390625 0.328125q-0.40625 0.3125 -0.40625 0.734375q0 0.28125 0.171875 0.5q0.171875 0.21875 0.53125 0.375q0.21875 0.078125 1.25 0.359375q1.484375 0.390625 2.078125 0.65625q0.59375 0.25 0.921875 0.734375q0.34375 0.484375 0.34375 1.203125q0 0.703125 -0.421875 1.328125q-0.40625 0.609375 -1.1875 0.953125q-0.765625 0.34375 -1.734375 0.34375q-1.625 0 -2.46875 -0.671875q-0.84375 -0.671875 -1.078125 -2.0z" fill-rule="nonzero"/><path fill="#000000" d="m596.17664 109.87706l-3.03125 -11.453125l1.546875 0l1.75 7.5q0.28125 1.1875 0.484375 2.34375q0.4375 -1.828125 0.515625 -2.109375l2.171875 -7.734375l1.828125 0l1.640625 5.796875q0.625 2.15625 0.890625 4.046875q0.21875 -1.078125 0.578125 -2.484375l1.796875 -7.359375l1.515625 0l-3.140625 11.453125l-1.453125 0l-2.421875 -8.734375q-0.296875 -1.09375 -0.359375 -1.34375q-0.171875 0.796875 -0.328125 1.34375l-2.4375 8.734375l-1.546875 0zm12.109375 -4.15625q0 -2.296875 1.28125 -3.40625q1.078125 -0.921875 2.609375 -0.921875q1.71875 0 2.796875 1.125q1.09375 1.109375 1.09375 3.09375q0 1.59375 -0.484375 2.515625q-0.484375 0.921875 -1.40625 1.4375q-0.90625 0.5 -2.0 0.5q-1.734375 0 -2.8125 -1.109375q-1.078125 -1.125 -1.078125 -3.234375zm1.453125 0q0 1.59375 0.6875 2.390625q0.703125 0.796875 1.75 0.796875q1.046875 0 1.734375 -0.796875q0.703125 -0.796875 0.703125 -2.4375q0 -1.53125 -0.703125 -2.328125q-0.6875 -0.796875 -1.734375 -0.796875q-1.046875 0 -1.75 0.796875q-0.6875 0.78125 -0.6875 2.375zm7.9609375 4.15625l0 -8.296875l1.265625 0l0 1.25q0.484375 -0.875 0.890625 -1.15625q0.40625 -0.28125 0.90625 -0.28125q0.703125 0 1.4375 0.453125l-0.484375 1.296875q-0.515625 -0.296875 -1.03125 -0.296875q-0.453125 0 -0.828125 0.28125q-0.359375 0.265625 -0.515625 0.765625q-0.234375 0.75 -0.234375 1.640625l0 4.34375l-1.40625 0zm5.34375 0l0 -11.453125l1.40625 0l0 6.53125l3.328125 -3.375l1.828125 0l-3.171875 3.078125l3.484375 5.21875l-1.734375 0l-2.734375 -4.25l-1.0 0.953125l0 3.296875l-1.40625 0zm13.671875 -2.671875l1.453125 0.171875q-0.34375 1.28125 -1.28125 1.984375q-0.921875 0.703125 -2.359375 0.703125q-1.828125 0 -2.890625 -1.125q-1.0625 -1.125 -1.0625 -3.140625q0 -2.09375 1.078125 -3.25q1.078125 -1.15625 2.796875 -1.15625q1.65625 0 2.703125 1.140625q1.0625 1.125 1.0625 3.171875q0 0.125 0 0.375l-6.1875 0q0.078125 1.375 0.765625 2.109375q0.703125 0.71875 1.734375 0.71875q0.78125 0 1.328125 -0.40625q0.546875 -0.40625 0.859375 -1.296875zm-4.609375 -2.28125l4.625 0q-0.09375 -1.046875 -0.53125 -1.5625q-0.671875 -0.8125 -1.734375 -0.8125q-0.96875 0 -1.640625 0.65625q-0.65625 0.640625 -0.71875 1.71875zm7.8203125 4.953125l0 -8.296875l1.265625 0l0 1.25q0.484375 -0.875 0.890625 -1.15625q0.40625 -0.28125 0.90625 -0.28125q0.703125 0 1.4375 0.453125l-0.484375 1.296875q-0.515625 -0.296875 -1.03125 -0.296875q-0.453125 0 -0.828125 0.28125q-0.359375 0.265625 -0.515625 0.765625q-0.234375 0.75 -0.234375 1.640625l0 4.34375l-1.40625 0z" fill-rule="nonzero"/><path fill="#c27ba0" d="m592.8163 206.90814l0 0c0 -7.1492615 6.705139 -12.944885 14.976379 -12.944885l0 0c8.27124 0 14.976379 5.795624 14.976379 12.944885l0 0c0 7.1492615 -6.705139 12.94487 -14.976379 12.94487l0 0c-8.27124 0 -14.976379 -5.7956085 -14.976379 -12.94487z" fill-rule="evenodd"/><path stroke="#000000" stroke-width="1.0" stroke-linejoin="round" stroke-linecap="butt" d="m592.8163 206.90814l0 0c0 -7.1492615 6.705139 -12.944885 14.976379 -12.944885l0 0c8.27124 0 14.976379 5.795624 14.976379 12.944885l0 0c0 7.1492615 -6.705139 12.94487 -14.976379 12.94487l0 0c-8.27124 0 -14.976379 -5.7956085 -14.976379 -12.94487z" fill-rule="evenodd"/><path fill="#000000" d="m614.0309 208.36438l1.265625 0.3125q-0.390625 1.5625 -1.421875 2.375q-1.03125 0.8125 -2.53125 0.8125q-1.53125 0 -2.5 -0.625q-0.96875 -0.625 -1.484375 -1.8125q-0.5 -1.1875 -0.5 -2.5625q0 -1.484375 0.5625 -2.59375q0.578125 -1.109375 1.625 -1.6875q1.0625 -0.578125 2.328125 -0.578125q1.421875 0 2.390625 0.734375q0.984375 0.71875 1.375 2.046875l-1.25 0.296875q-0.328125 -1.046875 -0.96875 -1.515625q-0.625 -0.484375 -1.578125 -0.484375q-1.09375 0 -1.84375 0.53125q-0.734375 0.53125 -1.03125 1.421875q-0.296875 0.875 -0.296875 1.828125q0 1.21875 0.34375 2.125q0.359375 0.90625 1.109375 1.359375q0.75 0.4375 1.625 0.4375q1.0625 0 1.796875 -0.609375q0.734375 -0.609375 0.984375 -1.8125z" fill-rule="nonzero"/><path fill="#fff2cc" d="m145.47769 206.90814l0 0c0 -7.1492615 6.7051544 -12.944885 14.976379 -12.944885l0 0c8.271225 0 14.976379 5.795624 14.976379 12.944885l0 0c0 7.1492615 -6.7051544 12.94487 -14.976379 12.94487l0 0c-8.271225 0 -14.976379 -5.7956085 -14.976379 -12.94487z" fill-rule="evenodd"/><path stroke="#000000" stroke-width="1.0" stroke-linejoin="round" stroke-linecap="butt" d="m145.47769 206.90814l0 0c0 -7.1492615 6.7051544 -12.944885 14.976379 -12.944885l0 0c8.271225 0 14.976379 5.795624 14.976379 12.944885l0 0c0 7.1492615 -6.7051544 12.94487 -14.976379 12.94487l0 0c-8.271225 0 -14.976379 -5.7956085 -14.976379 -12.94487z" fill-rule="evenodd"/><path fill="#000000" d="m162.31729 211.70813l0 -8.421875l-3.140625 0l0 -1.125l7.5625 0l0 1.125l-3.15625 0l0 8.421875l-1.265625 0z" fill-rule="nonzero"/><path fill="#c27ba0" d="m227.22835 206.90814l0 0c0 -7.1492615 6.7051544 -12.944885 14.976379 -12.944885l0 0c8.271225 0 14.976364 5.795624 14.976364 12.944885l0 0c0 7.1492615 -6.705139 12.94487 -14.976364 12.94487l0 0c-8.271225 0 -14.976379 -5.7956085 -14.976379 -12.94487z" fill-rule="evenodd"/><path stroke="#000000" stroke-width="1.0" stroke-linejoin="round" stroke-linecap="butt" d="m227.22835 206.90814l0 0c0 -7.1492615 6.7051544 -12.944885 14.976379 -12.944885l0 0c8.271225 0 14.976364 5.795624 14.976364 12.944885l0 0c0 7.1492615 -6.705139 12.94487 -14.976364 12.94487l0 0c-8.271225 0 -14.976379 -5.7956085 -14.976379 -12.94487z" fill-rule="evenodd"/><path fill="#000000" d="m248.44295 208.36438l1.265625 0.3125q-0.390625 1.5625 -1.421875 2.375q-1.03125 0.8125 -2.53125 0.8125q-1.53125 0 -2.5 -0.625q-0.96875 -0.625 -1.484375 -1.8125q-0.5 -1.1875 -0.5 -2.5625q0 -1.484375 0.5625 -2.59375q0.578125 -1.109375 1.625 -1.6875q1.0625 -0.578125 2.328125 -0.578125q1.421875 0 2.390625 0.734375q0.984375 0.71875 1.375 2.046875l-1.25 0.296875q-0.328125 -1.046875 -0.96875 -1.515625q-0.625 -0.484375 -1.578125 -0.484375q-1.09375 0 -1.84375 0.53125q-0.734375 0.53125 -1.03125 1.421875q-0.296875 0.875 -0.296875 1.828125q0 1.21875 0.34375 2.125q0.359375 0.90625 1.109375 1.359375q0.75 0.4375 1.625 0.4375q1.0625 0 1.796875 -0.609375q0.734375 -0.609375 0.984375 -1.8125z" fill-rule="nonzero"/><path fill="#fff2cc" d="m467.6614 206.90814l0 0c0 -7.1492615 6.7051697 -12.944885 14.976379 -12.944885l0 0c8.27124 0 14.976379 5.795624 14.976379 12.944885l0 0c0 7.1492615 -6.705139 12.94487 -14.976379 12.94487l0 0c-8.27121 0 -14.976379 -5.7956085 -14.976379 -12.94487z" fill-rule="evenodd"/><path stroke="#000000" stroke-width="1.0" stroke-linejoin="round" stroke-linecap="butt" d="m467.6614 206.90814l0 0c0 -7.1492615 6.7051697 -12.944885 14.976379 -12.944885l0 0c8.27124 0 14.976379 5.795624 14.976379 12.944885l0 0c0 7.1492615 -6.705139 12.94487 -14.976379 12.94487l0 0c-8.27121 0 -14.976379 -5.7956085 -14.976379 -12.94487z" fill-rule="evenodd"/><path fill="#000000" d="m484.501 211.70813l0 -8.421875l-3.140625 0l0 -1.125l7.5625 0l0 1.125l-3.15625 0l0 8.421875l-1.265625 0z" fill-rule="nonzero"/><path fill="#fff2cc" d="m514.48816 206.90814l0 0c0 -7.1492615 6.7052 -12.944885 14.976379 -12.944885l0 0c8.27124 0 14.976379 5.795624 14.976379 12.944885l0 0c0 7.1492615 -6.705139 12.94487 -14.976379 12.94487l0 0c-8.271179 0 -14.976379 -5.7956085 -14.976379 -12.94487z" fill-rule="evenodd"/><path stroke="#000000" stroke-width="1.0" stroke-linejoin="round" stroke-linecap="butt" d="m514.48816 206.90814l0 0c0 -7.1492615 6.7052 -12.944885 14.976379 -12.944885l0 0c8.27124 0 14.976379 5.795624 14.976379 12.944885l0 0c0 7.1492615 -6.705139 12.94487 -14.976379 12.94487l0 0c-8.271179 0 -14.976379 -5.7956085 -14.976379 -12.94487z" fill-rule="evenodd"/><path fill="#000000" d="m531.3278 211.70813l0 -8.421875l-3.140625 0l0 -1.125l7.5625 0l0 1.125l-3.15625 0l0 8.421875l-1.265625 0z" fill-rule="nonzero"/><path fill="#fff2cc" d="m265.06036 238.90814l0 0c0 -7.1492615 6.7051697 -12.944885 14.976379 -12.944885l0 0c8.27124 0 14.976379 5.795624 14.976379 12.944885l0 0c0 7.1492615 -6.705139 12.94487 -14.976379 12.94487l0 0c-8.27121 0 -14.976379 -5.7956085 -14.976379 -12.94487z" fill-rule="evenodd"/><path stroke="#000000" stroke-width="1.0" stroke-linejoin="round" stroke-linecap="butt" d="m265.06036 238.90814l0 0c0 -7.1492615 6.7051697 -12.944885 14.976379 -12.944885l0 0c8.27124 0 14.976379 5.795624 14.976379 12.944885l0 0c0 7.1492615 -6.705139 12.94487 -14.976379 12.94487l0 0c-8.27121 0 -14.976379 -5.7956085 -14.976379 -12.94487z" fill-rule="evenodd"/><path fill="#000000" d="m281.89996 243.70813l0 -8.421875l-3.140625 0l0 -1.125l7.5625 0l0 1.125l-3.15625 0l0 8.421875l-1.265625 0z" fill-rule="nonzero"/><path fill="#fff2cc" d="m389.2126 206.90814l0 0c0 -7.1492615 6.7051697 -12.944885 14.976379 -12.944885l0 0c8.27124 0 14.976379 5.795624 14.976379 12.944885l0 0c0 7.1492615 -6.705139 12.94487 -14.976379 12.94487l0 0c-8.27121 0 -14.976379 -5.7956085 -14.976379 -12.94487z" fill-rule="evenodd"/><path stroke="#000000" stroke-width="1.0" stroke-linejoin="round" stroke-linecap="butt" d="m389.2126 206.90814l0 0c0 -7.1492615 6.7051697 -12.944885 14.976379 -12.944885l0 0c8.27124 0 14.976379 5.795624 14.976379 12.944885l0 0c0 7.1492615 -6.705139 12.94487 -14.976379 12.94487l0 0c-8.27121 0 -14.976379 -5.7956085 -14.976379 -12.94487z" fill-rule="evenodd"/><path fill="#000000" d="m406.05222 211.70813l0 -8.421875l-3.140625 0l0 -1.125l7.5625 0l0 1.125l-3.15625 0l0 8.421875l-1.265625 0z" fill-rule="nonzero"/><path fill="#fff2cc" d="m635.21783 242.08136l0 0c0 -7.1492615 6.705139 -12.94487 14.976379 -12.94487l0 0c8.27124 0 14.976379 5.7956085 14.976379 12.94487l0 0c0 7.1492615 -6.705139 12.944885 -14.976379 12.944885l0 0c-8.27124 0 -14.976379 -5.795624 -14.976379 -12.944885z" fill-rule="evenodd"/><path stroke="#000000" stroke-width="1.0" stroke-linejoin="round" stroke-linecap="butt" d="m635.21783 242.08136l0 0c0 -7.1492615 6.705139 -12.94487 14.976379 -12.94487l0 0c8.27124 0 14.976379 5.7956085 14.976379 12.94487l0 0c0 7.1492615 -6.705139 12.944885 -14.976379 12.944885l0 0c-8.27124 0 -14.976379 -5.795624 -14.976379 -12.944885z" fill-rule="evenodd"/><path fill="#000000" d="m652.05743 246.88136l0 -8.421875l-3.140625 0l0 -1.125l7.5625 0l0 1.125l-3.15625 0l0 8.421875l-1.265625 0z" fill-rule="nonzero"/><path fill="#fff2cc" d="m592.8163 242.08136l0 0c0 -7.1492615 6.705139 -12.94487 14.976379 -12.94487l0 0c8.27124 0 14.976379 5.7956085 14.976379 12.94487l0 0c0 7.1492615 -6.705139 12.944885 -14.976379 12.944885l0 0c-8.27124 0 -14.976379 -5.795624 -14.976379 -12.944885z" fill-rule="evenodd"/><path stroke="#000000" stroke-width="1.0" stroke-linejoin="round" stroke-linecap="butt" d="m592.8163 242.08136l0 0c0 -7.1492615 6.705139 -12.94487 14.976379 -12.94487l0 0c8.27124 0 14.976379 5.7956085 14.976379 12.94487l0 0c0 7.1492615 -6.705139 12.944885 -14.976379 12.944885l0 0c-8.27124 0 -14.976379 -5.795624 -14.976379 -12.944885z" fill-rule="evenodd"/><path fill="#000000" d="m609.6559 246.88136l0 -8.421875l-3.140625 0l0 -1.125l7.5625 0l0 1.125l-3.15625 0l0 8.421875l-1.265625 0z" fill-rule="nonzero"/><path fill="#c27ba0" d="m107.64567 238.90814l0 0c0 -7.1492615 6.7051544 -12.944885 14.976379 -12.944885l0 0c8.271217 0 14.976372 5.795624 14.976372 12.944885l0 0c0 7.1492615 -6.7051544 12.94487 -14.976372 12.94487l0 0c-8.271225 0 -14.976379 -5.7956085 -14.976379 -12.94487z" fill-rule="evenodd"/><path stroke="#000000" stroke-width="1.0" stroke-linejoin="round" stroke-linecap="butt" d="m107.64567 238.90814l0 0c0 -7.1492615 6.7051544 -12.944885 14.976379 -12.944885l0 0c8.271217 0 14.976372 5.795624 14.976372 12.944885l0 0c0 7.1492615 -6.7051544 12.94487 -14.976372 12.94487l0 0c-8.271225 0 -14.976379 -5.7956085 -14.976379 -12.94487z" fill-rule="evenodd"/><path fill="#000000" d="m128.86028 240.36438l1.265625 0.3125q-0.390625 1.5625 -1.421875 2.375q-1.03125 0.8125 -2.53125 0.8125q-1.53125 0 -2.5 -0.625q-0.96875 -0.625 -1.484375 -1.8125q-0.5 -1.1875 -0.5 -2.5625q0 -1.484375 0.5625 -2.59375q0.578125 -1.109375 1.625 -1.6875q1.0625 -0.578125 2.328125 -0.578125q1.421875 0 2.390625 0.734375q0.984375 0.71875 1.375 2.046875l-1.25 0.296875q-0.328125 -1.046875 -0.96875 -1.515625q-0.625 -0.484375 -1.578125 -0.484375q-1.09375 0 -1.84375 0.53125q-0.734375 0.53125 -1.03125 1.421875q-0.296875 0.875 -0.296875 1.828125q0 1.21875 0.34375 2.125q0.359375 0.90625 1.109375 1.359375q0.75 0.4375 1.625 0.4375q1.0625 0 1.796875 -0.609375q0.734375 -0.609375 0.984375 -1.8125z" fill-rule="nonzero"/><path fill="#c27ba0" d="m635.21783 206.90814l0 0c0 -7.1492615 6.705139 -12.944885 14.976379 -12.944885l0 0c8.27124 0 14.976379 5.795624 14.976379 12.944885l0 0c0 7.1492615 -6.705139 12.94487 -14.976379 12.94487l0 0c-8.27124 0 -14.976379 -5.7956085 -14.976379 -12.94487z" fill-rule="evenodd"/><path stroke="#000000" stroke-width="1.0" stroke-linejoin="round" stroke-linecap="butt" d="m635.21783 206.90814l0 0c0 -7.1492615 6.705139 -12.944885 14.976379 -12.944885l0 0c8.27124 0 14.976379 5.795624 14.976379 12.944885l0 0c0 7.1492615 -6.705139 12.94487 -14.976379 12.94487l0 0c-8.27124 0 -14.976379 -5.7956085 -14.976379 -12.94487z" fill-rule="evenodd"/><path fill="#000000" d="m656.43243 208.36438l1.265625 0.3125q-0.390625 1.5625 -1.421875 2.375q-1.03125 0.8125 -2.53125 0.8125q-1.53125 0 -2.5 -0.625q-0.96875 -0.625 -1.484375 -1.8125q-0.5 -1.1875 -0.5 -2.5625q0 -1.484375 0.5625 -2.59375q0.578125 -1.109375 1.625 -1.6875q1.0625 -0.578125 2.328125 -0.578125q1.421875 0 2.390625 0.734375q0.984375 0.71875 1.375 2.046875l-1.25 0.296875q-0.328125 -1.046875 -0.96875 -1.515625q-0.625 -0.484375 -1.578125 -0.484375q-1.09375 0 -1.84375 0.53125q-0.734375 0.53125 -1.03125 1.421875q-0.296875 0.875 -0.296875 1.828125q0 1.21875 0.34375 2.125q0.359375 0.90625 1.109375 1.359375q0.75 0.4375 1.625 0.4375q1.0625 0 1.796875 -0.609375q0.734375 -0.609375 0.984375 -1.8125z" fill-rule="nonzero"/><path fill="#fff2cc" d="m351.38058 206.90814l0 0c0 -7.1492615 6.705139 -12.944885 14.976379 -12.944885l0 0c8.27121 0 14.976379 5.795624 14.976379 12.944885l0 0c0 7.1492615 -6.7051697 12.94487 -14.976379 12.94487l0 0c-8.27124 0 -14.976379 -5.7956085 -14.976379 -12.94487z" fill-rule="evenodd"/><path stroke="#000000" stroke-width="1.0" stroke-linejoin="round" stroke-linecap="butt" d="m351.38058 206.90814l0 0c0 -7.1492615 6.705139 -12.944885 14.976379 -12.944885l0 0c8.27121 0 14.976379 5.795624 14.976379 12.944885l0 0c0 7.1492615 -6.7051697 12.94487 -14.976379 12.94487l0 0c-8.27124 0 -14.976379 -5.7956085 -14.976379 -12.94487z" fill-rule="evenodd"/><path fill="#000000" d="m368.22018 211.70813l0 -8.421875l-3.140625 0l0 -1.125l7.5625 0l0 1.125l-3.15625 0l0 8.421875l-1.265625 0z" fill-rule="nonzero"/><path fill="#fff2cc" d="m514.48816 242.08136l0 0c0 -7.1492615 6.7052 -12.94487 14.976379 -12.94487l0 0c8.27124 0 14.976379 5.7956085 14.976379 12.94487l0 0c0 7.1492615 -6.705139 12.944885 -14.976379 12.944885l0 0c-8.271179 0 -14.976379 -5.795624 -14.976379 -12.944885z" fill-rule="evenodd"/><path stroke="#000000" stroke-width="1.0" stroke-linejoin="round" stroke-linecap="butt" d="m514.48816 242.08136l0 0c0 -7.1492615 6.7052 -12.94487 14.976379 -12.94487l0 0c8.27124 0 14.976379 5.7956085 14.976379 12.94487l0 0c0 7.1492615 -6.705139 12.944885 -14.976379 12.944885l0 0c-8.271179 0 -14.976379 -5.795624 -14.976379 -12.944885z" fill-rule="evenodd"/><path fill="#000000" d="m531.3278 246.88136l0 -8.421875l-3.140625 0l0 -1.125l7.5625 0l0 1.125l-3.15625 0l0 8.421875l-1.265625 0z" fill-rule="nonzero"/><path fill="#fff2cc" d="m467.6614 238.90814l0 0c0 -7.1492615 6.7051697 -12.944885 14.976379 -12.944885l0 0c8.27124 0 14.976379 5.795624 14.976379 12.944885l0 0c0 7.1492615 -6.705139 12.94487 -14.976379 12.94487l0 0c-8.27121 0 -14.976379 -5.7956085 -14.976379 -12.94487z" fill-rule="evenodd"/><path stroke="#000000" stroke-width="1.0" stroke-linejoin="round" stroke-linecap="butt" d="m467.6614 238.90814l0 0c0 -7.1492615 6.7051697 -12.944885 14.976379 -12.944885l0 0c8.27124 0 14.976379 5.795624 14.976379 12.944885l0 0c0 7.1492615 -6.705139 12.94487 -14.976379 12.94487l0 0c-8.27121 0 -14.976379 -5.7956085 -14.976379 -12.94487z" fill-rule="evenodd"/><path fill="#000000" d="m484.501 243.70813l0 -8.421875l-3.140625 0l0 -1.125l7.5625 0l0 1.125l-3.15625 0l0 8.421875l-1.265625 0z" fill-rule="nonzero"/><path fill="#fff2cc" d="m393.78217 242.08136l0 0c0 -7.1492615 6.705139 -12.94487 14.976379 -12.94487l0 0c8.27121 0 14.976349 5.7956085 14.976349 12.94487l0 0c0 7.1492615 -6.705139 12.944885 -14.976349 12.944885l0 0c-8.27124 0 -14.976379 -5.795624 -14.976379 -12.944885z" fill-rule="evenodd"/><path stroke="#000000" stroke-width="1.0" stroke-linejoin="round" stroke-linecap="butt" d="m393.78217 242.08136l0 0c0 -7.1492615 6.705139 -12.94487 14.976379 -12.94487l0 0c8.27121 0 14.976349 5.7956085 14.976349 12.94487l0 0c0 7.1492615 -6.705139 12.944885 -14.976349 12.944885l0 0c-8.27124 0 -14.976379 -5.795624 -14.976379 -12.944885z" fill-rule="evenodd"/><path fill="#000000" d="m410.62177 246.88136l0 -8.421875l-3.140625 0l0 -1.125l7.5625 0l0 1.125l-3.15625 0l0 8.421875l-1.265625 0z" fill-rule="nonzero"/><path fill="#c27ba0" d="m351.38058 238.90814l0 0c0 -7.1492615 6.705139 -12.944885 14.976379 -12.944885l0 0c8.27121 0 14.976379 5.795624 14.976379 12.944885l0 0c0 7.1492615 -6.7051697 12.94487 -14.976379 12.94487l0 0c-8.27124 0 -14.976379 -5.7956085 -14.976379 -12.94487z" fill-rule="evenodd"/><path stroke="#000000" stroke-width="1.0" stroke-linejoin="round" stroke-linecap="butt" d="m351.38058 238.90814l0 0c0 -7.1492615 6.705139 -12.944885 14.976379 -12.944885l0 0c8.27121 0 14.976379 5.795624 14.976379 12.944885l0 0c0 7.1492615 -6.7051697 12.94487 -14.976379 12.94487l0 0c-8.27124 0 -14.976379 -5.7956085 -14.976379 -12.94487z" fill-rule="evenodd"/><path fill="#000000" d="m372.59518 240.36438l1.265625 0.3125q-0.390625 1.5625 -1.421875 2.375q-1.03125 0.8125 -2.53125 0.8125q-1.53125 0 -2.5 -0.625q-0.96875 -0.625 -1.484375 -1.8125q-0.5 -1.1875 -0.5 -2.5625q0 -1.484375 0.5625 -2.59375q0.578125 -1.109375 1.625 -1.6875q1.0625 -0.578125 2.328125 -0.578125q1.421875 0 2.390625 0.734375q0.984375 0.71875 1.375 2.046875l-1.25 0.296875q-0.328125 -1.046875 -0.96875 -1.515625q-0.625 -0.484375 -1.578125 -0.484375q-1.09375 0 -1.84375 0.53125q-0.734375 0.53125 -1.03125 1.421875q-0.296875 0.875 -0.296875 1.828125q0 1.21875 0.34375 2.125q0.359375 0.90625 1.109375 1.359375q0.75 0.4375 1.625 0.4375q1.0625 0 1.796875 -0.609375q0.734375 -0.609375 0.984375 -1.8125z" fill-rule="nonzero"/><path fill="#c27ba0" d="m267.34515 206.90814l0 0c0 -7.1492615 6.705139 -12.944885 14.976379 -12.944885l0 0c8.27121 0 14.976379 5.795624 14.976379 12.944885l0 0c0 7.1492615 -6.7051697 12.94487 -14.976379 12.94487l0 0c-8.27124 0 -14.976379 -5.7956085 -14.976379 -12.94487z" fill-rule="evenodd"/><path stroke="#000000" stroke-width="1.0" stroke-linejoin="round" stroke-linecap="butt" d="m267.34515 206.90814l0 0c0 -7.1492615 6.705139 -12.944885 14.976379 -12.944885l0 0c8.27121 0 14.976379 5.795624 14.976379 12.944885l0 0c0 7.1492615 -6.7051697 12.94487 -14.976379 12.94487l0 0c-8.27124 0 -14.976379 -5.7956085 -14.976379 -12.94487z" fill-rule="evenodd"/><path fill="#000000" d="m288.55975 208.36438l1.265625 0.3125q-0.390625 1.5625 -1.421875 2.375q-1.03125 0.8125 -2.53125 0.8125q-1.53125 0 -2.5 -0.625q-0.96875 -0.625 -1.484375 -1.8125q-0.5 -1.1875 -0.5 -2.5625q0 -1.484375 0.5625 -2.59375q0.578125 -1.109375 1.625 -1.6875q1.0625 -0.578125 2.328125 -0.578125q1.421875 0 2.390625 0.734375q0.984375 0.71875 1.375 2.046875l-1.25 0.296875q-0.328125 -1.046875 -0.96875 -1.515625q-0.625 -0.484375 -1.578125 -0.484375q-1.09375 0 -1.84375 0.53125q-0.734375 0.53125 -1.03125 1.421875q-0.296875 0.875 -0.296875 1.828125q0 1.21875 0.34375 2.125q0.359375 0.90625 1.109375 1.359375q0.75 0.4375 1.625 0.4375q1.0625 0 1.796875 -0.609375q0.734375 -0.609375 0.984375 -1.8125z" fill-rule="nonzero"/></g></svg>